<svg width="40" height="40" viewBox="0 0 40 40" fill="none" xmlns="http://www.w3.org/2000/svg">
<path d="M27.2755 10.6899C24.1255 10.6899 22.7943 12.1931 20.6005 12.1931C18.3513 12.1931 16.6357 10.7009 13.906 10.7009C11.2341 10.7009 8.38492 12.3321 6.57555 15.111C4.03492 19.0298 4.46617 26.4103 8.58102 32.6978C10.0529 34.9485 12.0185 37.4727 14.5966 37.5001H14.6435C16.8841 37.5001 17.5498 36.0329 20.6334 36.0157H20.6802C23.7177 36.0157 24.3271 37.4915 26.5584 37.4915H26.6052C29.1834 37.4642 31.2545 34.6673 32.7263 32.4251C33.7857 30.8126 34.1795 30.0032 34.992 28.179C29.0396 25.9196 28.0834 17.4813 33.9701 14.2462C32.1732 11.9962 29.6482 10.6931 27.2677 10.6931L27.2755 10.6899Z" fill="white"/>
<path d="M26.5819 2.50195C24.7069 2.6293 22.5194 3.82305 21.2382 5.38164C20.0757 6.79414 19.1194 8.88945 19.4944 10.9215H19.6444C21.6413 10.9215 23.6851 9.71914 24.8788 8.17851C26.0288 6.71211 26.9007 4.63398 26.5819 2.50195Z" fill="white"/>
</svg>
