<svg width="38" height="38" viewBox="0 0 38 38" fill="none" xmlns="http://www.w3.org/2000/svg">
<path d="M35.1173 16.4377L34.9496 15.726H19.4794V22.2735H28.7226C27.763 26.8306 23.3099 29.2293 19.6724 29.2293C17.0258 29.2293 14.2359 28.116 12.3893 26.3266C11.4151 25.3674 10.6396 24.2255 10.1072 22.9662C9.57491 21.7069 9.29617 20.355 9.28699 18.9879C9.28699 16.2299 10.5264 13.4712 12.33 11.6566C14.1335 9.8419 16.8573 8.82659 19.5655 8.82659C22.6671 8.82659 24.89 10.4735 25.7212 11.2246L30.374 6.59632C29.0091 5.39694 25.2596 2.37476 19.4156 2.37476C14.9068 2.37476 10.5836 4.10183 7.42336 7.25167C4.30469 10.3533 2.69043 14.8383 2.69043 18.9998C2.69043 23.1612 4.21785 27.4221 7.24004 30.5482C10.4693 33.8821 15.0427 35.6247 19.7518 35.6247C24.0365 35.6247 28.0977 33.9459 30.9923 30.9C33.8378 27.9015 35.3096 23.7527 35.3096 19.4035C35.3096 17.5725 35.1255 16.4852 35.1173 16.4377Z" fill="white"/>
</svg>
